<?xml version="1.0" encoding="UTF-8" standalone="no"?>
<!-- Created with Inkscape (http://www.inkscape.org/) -->

<svg
   id="svg5406"
   sodipodi:docname="relogio.svg"
   viewBox="0 0 217.88844 165.62662"
   version="1.1"
   inkscape:version="1.2.1 (2ed6d7ae0b, 2022-08-22, custom)"
   width="217.88844"
   height="165.62662"
   xmlns:inkscape="http://www.inkscape.org/namespaces/inkscape"
   xmlns:sodipodi="http://sodipodi.sourceforge.net/DTD/sodipodi-0.dtd"
   xmlns="http://www.w3.org/2000/svg"
   xmlns:svg="http://www.w3.org/2000/svg"
   xmlns:rdf="http://www.w3.org/1999/02/22-rdf-syntax-ns#"
   xmlns:cc="http://creativecommons.org/ns#"
   xmlns:dc="http://purl.org/dc/elements/1.1/">
  <defs
     id="defs5408">
    <clipPath
       id="clipPath5178"
       clipPathUnits="userSpaceOnUse">
      <ellipse
         id="path5180"
         style="color:#000000;fill:none;stroke:#000000;stroke-width:2"
         transform="translate(112.9,416.34)"
         cx="319.18253"
         cy="141.18939"
         rx="107.94173"
         ry="78.538246" />
    </clipPath>
  </defs>
  <sodipodi:namedview
     id="base"
     bordercolor="#666666"
     inkscape:pageshadow="2"
     inkscape:window-y="27"
     fit-margin-left="0"
     pagecolor="#ffffff"
     fit-margin-top="0"
     inkscape:window-maximized="1"
     inkscape:zoom="2.8"
     inkscape:window-x="1988"
     inkscape:window-height="1016"
     showgrid="false"
     borderopacity="1.0"
     inkscape:current-layer="layer1"
     inkscape:cx="90.892857"
     inkscape:cy="116.96429"
     fit-margin-right="0"
     fit-margin-bottom="0"
     inkscape:window-width="1852"
     inkscape:pageopacity="0.0"
     inkscape:document-units="px"
     inkscape:showpageshadow="2"
     inkscape:pagecheckerboard="0"
     inkscape:deskcolor="#d1d1d1" />
  <g
     id="layer1"
     inkscape:label="Layer 1"
     inkscape:groupmode="layer"
     transform="translate(-172.66081,-374.39402)">
    <ellipse
       id="path5182"
       style="color:#000000;fill:none;stroke:#000000;stroke-width:2"
       transform="translate(-37.575,319.29)"
       cx="319.18253"
       cy="141.18939"
       rx="107.94173"
       ry="78.538246" />
    <ellipse
       id="path5134"
       style="color:#000000;fill:#ffffff;stroke:#000000;stroke-width:2"
       cx="281.60254"
       cy="460.48239"
       rx="107.94173"
       ry="78.538246" />
    <ellipse
       id="path5047"
       style="color:#000000;fill:none;stroke:#000000;stroke-width:2"
       transform="translate(-37.575,319.29)"
       cx="319.18253"
       cy="141.18939"
       rx="107.94173"
       ry="78.538246" />
    <ellipse
       id="path5130"
       style="color:#000000;fill:none;stroke:#000000;stroke-width:3;stroke-linecap:round"
       transform="translate(-41.818,319.29)"
       cx="322.61746"
       cy="137.91837"
       rx="77.958519"
       ry="55.331104" />
    <ellipse
       id="path5132"
       style="color:#000000;fill:none;stroke:#000000;stroke-width:3;stroke-linecap:round"
       transform="translate(-42.172,317.52)"
       cx="325.26913"
       cy="136.68094"
       rx="45.254833"
       ry="33.23402" />
    <path
       id="text2401"
       style="text-indent:0;text-transform:none;fill:#000000"
       inkscape:connector-curvature="0"
       d="m 361.42,475.81 -1.1846,1.2714 -0.57657,-0.19664 2.3507,-3.619 0.57656,0.19663 -0.5006,1.3231 4.1451,6.0162 8.3538,-1.077 1.0933,-1.1512 0.57657,0.19663 -2.968,4.5692 -0.57656,-0.19665 0.62951,-1.5011 -5.9957,0.7609 2.8346,4.1057 1.1738,-1.2751 0.57658,0.19665 -2.3561,3.6273 -0.57658,-0.19666 0.5115,-1.3194 -3.4377,-4.9775 -9.8717,1.2861 -1.1095,1.1558 -0.57658,-0.19664 2.968,-4.5692 0.57656,0.19666 -0.61862,1.5048 7.5461,-0.97911 -3.5638,-5.1517 m -8.4208,12.964 -1.2168,1.321 -0.57656,-0.19665 2.8767,-4.4287 0.57656,0.19665 -0.62935,1.5213 12.858,4.3855 1.2059,-1.3246 0.57657,0.19665 -2.8767,4.4287 -0.57656,-0.19665 0.64023,-1.5176 -12.858,-4.3855 m -3.5852,5.5194 -1.2168,1.3209 -0.57657,-0.19665 2.8767,-4.4287 0.57657,0.19665 -0.62937,1.5213 12.858,4.3855 1.2059,-1.3247 0.57657,0.19666 -2.8767,4.4287 -0.57656,-0.19665 0.64024,-1.5176 -12.858,-4.3855 m -22.92,15.702 -1.9169,0.71338 -0.35711,-0.38925 5.4068,-2.841 0.3571,0.38924 -1.5531,1.11 7.964,8.6812 1.9102,-0.72072 0.35709,0.38928 -5.4068,2.841 -0.35708,-0.38927 1.5598,-1.1027 -7.964,-8.6812 m -36.648,10.622 -2.1034,-0.0854 -0.0419,-0.47755 6.4881,-0.49214 0.0419,0.47756 -2.0606,0.4012 0.93546,10.651 2.1026,0.0763 0.0419,0.47756 -6.4881,0.49213 -0.0419,-0.47756 2.0614,-0.3922 -0.93546,-10.651 m -8.0859,0.61328 -2.1034,-0.0854 -0.0419,-0.47755 6.4881,-0.49205 0.0419,0.47756 -2.0606,0.40119 0.93545,10.651 2.1026,0.0763 0.0418,0.47755 -6.488,0.49203 -0.0419,-0.47755 2.0614,-0.39219 -0.93546,-10.651 m -30.432,-3.4031 -1.7262,-0.86123 0.28445,-0.43793 5.8309,1.9887 -0.28443,0.43793 -2.016,-0.41507 -6.3437,9.7663 1.7315,0.85298 -0.28444,0.43791 -5.831,-1.9887 0.28444,-0.43792 2.0106,0.42332 6.3437,-9.7663 m -7.267,-2.4785 -1.7262,-0.86124 0.28446,-0.43793 5.8309,1.9887 -0.28444,0.43793 -2.016,-0.41505 -6.3437,9.7662 1.7315,0.85299 -0.28447,0.43791 -5.8309,-1.9887 0.28446,-0.43792 2.0106,0.42333 6.3437,-9.7663 m -7.267,-2.4785 -1.7262,-0.86123 0.28445,-0.43793 5.831,1.9887 -0.28445,0.43793 -2.016,-0.41506 -6.3437,9.7663 1.7315,0.85298 -0.28444,0.43792 -5.831,-1.9887 0.28445,-0.43791 2.0106,0.42332 6.3437,-9.7663 m -19.54,-12.656 -0.88652,-1.4064 0.5346,-0.28093 3.6114,3.9366 -0.53465,0.28091 -1.4313,-1.1202 -11.923,6.2652 0.89662,1.4011 -0.53465,0.28092 -3.6114,-3.9367 0.53463,-0.28093 1.4212,1.1254 11.923,-6.2652 m -24.079,-5.6988 0.53465,-0.28092 1.2527,0.94183 16.674,-2.8948 0.34363,0.37459 -9.3707,10.856 0.75511,1.2468 -0.53463,0.28091 -3.6519,-3.9807 0.53464,-0.28092 1.4751,1.1842 7.2207,-8.2134 -12.685,2.257 0.92358,1.4304 -0.53464,0.28093 -2.9376,-3.2022 m -9.6669,-33.616 0.64154,-0.0487 0.43105,1.3007 16.077,3.6695 0.0404,0.45955 -15.22,6.098 -0.19524,1.3845 -0.64154,0.0488 -0.42885,-4.8838 0.64156,-0.0488 0.45714,1.5981 11.626,-4.5645 -12.268,-2.7432 -0.1754,1.6097 -0.64156,0.0487 -0.34504,-3.9287 m 11.806,-34.419 0.57657,0.19663 -0.50613,1.3111 11.174,9.2511 -0.27371,0.42138 -16.992,-0.29445 -1.0933,1.1512 -0.57656,-0.19664 2.9089,-4.4783 0.57656,0.19665 -0.68319,1.5837 12.916,0.30746 -8.5636,-7.0084 -1.2274,1.3577 -0.57656,-0.19666 2.34,-3.6025 m 16.047,1.0925 1.2168,-1.321 0.57657,0.19665 -2.8767,4.4287 -0.57656,-0.19665 0.62936,-1.5213 -12.858,-4.3855 -1.2059,1.3247 -0.57656,-0.19664 2.8767,-4.4287 0.57657,0.19664 -0.64026,1.5176 12.858,4.3855 m 15.892,-27.794 0.35711,0.38926 -1.3076,0.97012 3.2748,12.353 -0.51446,0.27033 -14.209,-6.6076 -1.6983,0.6094 -0.35711,-0.38924 5.4674,-2.8729 0.35711,0.38925 -1.6405,1.145 10.745,5.0971 -2.5648,-9.3957 -1.9506,0.74194 -0.3571,-0.38923 4.398,-2.311 m 12.875,6.9611 1.9169,-0.71338 0.35711,0.38923 -5.4068,2.841 -0.3571,-0.38923 1.5531,-1.11 -7.964,-8.6812 -1.9102,0.72072 -0.35711,-0.38924 5.4069,-2.841 0.3571,0.38923 -1.5599,1.1027 7.964,8.6812 m 6.7383,-3.5407 1.917,-0.71338 0.35712,0.38925 -5.4068,2.841 -0.3571,-0.38925 1.5531,-1.11 -7.964,-8.6812 -1.9102,0.72072 -0.35711,-0.38924 5.4068,-2.841 0.3571,0.38924 -1.5598,1.1026 7.964,8.6812 m 24.642,-16.435 0.0419,0.47758 -1.7588,0.36923 -5.5008,12.145 -0.61735,0.0468 -7.6203,-11.15 -1.8484,-0.0957 -0.0419,-0.47757 6.5607,-0.49754 0.0419,0.47756 -2.1583,0.39953 5.6956,8.5209 4.1213,-9.2654 -2.151,-0.0727 -0.0419,-0.47756 5.2776,-0.40029 m 6.2513,10.964 2.1034,0.0854 0.0419,0.47757 -6.4881,0.49204 -0.042,-0.47757 2.0606,-0.4012 -0.9355,-10.651 -2.1026,-0.0763 -0.0419,-0.47755 6.4881,-0.49205 0.0419,0.47756 -2.0614,0.39218 0.93545,10.651 m 8.0859,-0.61327 2.1034,0.0854 0.0419,0.47757 -6.4881,0.49204 -0.042,-0.47757 2.0606,-0.4012 -0.93546,-10.651 -2.1026,-0.0763 -0.042,-0.47758 6.4881,-0.49203 0.042,0.47757 -2.0614,0.39219 0.93545,10.651 m 8.0859,-0.61329 2.1034,0.0854 0.0419,0.47756 -6.4881,0.49205 -0.0419,-0.47758 2.0606,-0.40118 -0.93546,-10.651 -2.1026,-0.0763 -0.042,-0.47759 6.4881,-0.49204 0.0419,0.47756 -2.0614,0.3922 0.93552,10.651 m 17.356,4.0019 1.7262,0.86126 -0.28444,0.43791 -5.831,-1.9887 0.28445,-0.43793 2.016,0.41507 6.3437,-9.7663 -1.7315,-0.85298 0.28447,-0.4379 5.8309,1.9887 -0.28444,0.43792 -2.0106,-0.42333 -6.3437,9.7663 m 5.9506,2.0295 1.6609,0.83899 -0.28445,0.43791 -4.7648,-1.6251 0.28445,-0.4379 1.755,0.32605 8.213,-3.3152 -1.1403,-6.2026 -1.5032,-0.77509 0.28445,-0.43791 6.0159,2.0518 -0.28445,0.43792 -1.9889,-0.41591 0.80229,4.4521 5.6052,-2.2668 -1.6663,-0.83071 0.28447,-0.43792 4.7757,1.6288 -0.28445,0.43792 -1.7496,-0.33432 -6.7955,2.749 1.3655,7.329 1.5087,0.78707 -0.28444,0.43791 -6.0159,-2.0518 0.28446,-0.43793 1.9942,0.40764 -1.0385,-5.6026 -7.0334,2.8495 m 30.764,17.495 0.84608,1.3623 -0.53461,0.28092 -2.9511,-3.2169 0.53462,-0.28094 1.2695,0.94384 9.1853,0.13705 3.1893,-5.9101 -0.75511,-1.2468 0.5346,-0.28091 3.726,4.0615 -0.53461,0.28092 -1.4077,-1.1108 -2.303,4.2361 6.2715,0.0897 -0.85617,-1.357 0.5346,-0.28092 2.9578,3.2242 -0.53461,0.28093 -1.2594,-0.94916 -7.6039,-0.10798 -3.7532,6.9901 0.75182,1.2595 -0.53459,0.28092 -3.726,-4.0615 0.53459,-0.28091 1.4178,1.1055 2.8737,-5.3415 -7.873,-0.1081 m 16.165,26.434 -0.19548,1.5206 -0.64154,0.0487 -0.34662,-3.9467 0.64154,-0.0487 0.44395,1.3088 7.6963,3.5525 6.6645,-4.034 0.19524,-1.3845 0.64154,-0.0488 0.43758,4.9829 -0.64154,0.0488 -0.44925,-1.508 -4.7914,2.8851 5.2574,2.4222 0.18337,-1.5196 0.64151,-0.0487 0.34746,3.9557 -0.64153,0.0487 -0.43184,-1.3097 -6.3749,-2.9362 -7.8663,4.7782 -0.20651,1.3944 -0.64154,0.0487 -0.43758,-4.9829 0.64154,-0.0488 0.46137,1.507 6.0158,-3.6492 -6.6031,-3.0368 m 1.242,14.138 -0.19074,1.5746 -0.64153,0.0487 -0.42424,-4.8298 0.64153,-0.0487 0.46295,1.5251 14.308,-1.0851 0.17863,-1.5737 0.64153,-0.0487 0.42424,4.8298 -0.64155,0.0487 -0.45083,-1.526 -14.308,1.0851" />
    <path
       id="path5049"
       style="fill:#ffffff;stroke:#000000;stroke-width:2;stroke-dasharray:none"
       inkscape:connector-curvature="0"
       d="m 215.83,375.35 v 11.625 l 18.812,15.094 c -1.1108,0.28973 -2.5425,0.70966 -4.0312,1.4062 -1.5532,0.72675 -3.2098,1.7101 -4.5938,3.2188 -1.384,1.5087 -2.461,3.6651 -2.5312,6.125 -0.0479,1.6747 0.66384,3.248 1.625,4.3438 0.96116,1.0957 2.1272,1.8516 3.375,2.5312 2.0451,1.1139 4.4054,2.0085 6.8438,2.875 -0.26974,0.0295 -0.54989,0.0537 -0.8125,0.0937 -1.292,0.19709 -2.477,0.16451 -3.9688,1.6562 -0.46441,0.46442 -1.8555,1.4315 -3.0938,2.9375 -1.2382,1.506 -2.3195,4.1012 -1.5312,6.7812 0.85833,2.9183 3.2366,4.4922 5.3125,5.2188 0.15629,0.0547 0.31297,0.11012 0.46875,0.15625 -0.61105,0.13465 -1.1235,0.23401 -1.8125,0.40625 -1.3188,0.32971 -2.7225,0.71715 -4.0312,1.1875 -1.3088,0.47035 -2.4716,0.91388 -3.625,1.875 -1.3926,1.1605 -1.8955,2.8341 -2,4.25 -0.10453,1.4159 0.10549,2.7576 0.5,4.0625 0.63893,2.1134 1.6238,4.1011 3.1875,5.6562 l -6.1562,8.6562 87.062,-14.688 c 0,0 0.57592,-0.38995 1.1562,-1.9375 0.58034,-1.5476 -90.156,-73.531 -90.156,-73.531 z m 23.938,30.812 15.562,12.5 -4.25,4.5 c -0.93237,-0.71234 -1.9324,-1.3451 -2.9688,-1.9062 -2.8884,-1.5639 -6.1347,-2.7134 -9.1562,-3.7812 -3.0215,-1.0678 -5.8275,-2.1005 -7.5938,-3.0625 -0.88312,-0.48102 -1.4762,-0.94221 -1.7188,-1.2188 -0.12129,-0.13827 -0.14745,-0.20087 -0.15625,-0.21875 0.0264,-0.92541 0.30848,-1.5331 0.9375,-2.2188 0.62902,-0.68569 1.6363,-1.3373 2.7188,-1.8438 2.1648,-1.0129 4.4062,-1.375 4.4062,-1.375 a 3.0024,3.0024 0 0 0 2.2188,-1.375 z m 20.25,16.25 28.156,22.594 -38.406,6.75 c 0.48877,-0.33997 0.97156,-0.67497 1.5,-1.0625 1.4514,-1.0644 2.6372,-2.3165 3.5938,-3.6875 a 3.0003,3.0003 0 0 0 0.65625,-0.8125 c 0,0 1.2783,-2.0087 3.3438,-3.9688 2.0654,-1.9601 4.669,-3.499 7.0312,-3.3125 1.9828,0.15654 3.2256,0.69193 4.125,1.2188 -1.3566,0.28625 -2.25,0.34375 -2.25,0.34375 a 3.0003,3.0003 0 1 0 -0.5625,5.9688 c 0,0 2.9173,0.20567 6.6875,-1.125 1.5606,-0.55079 3.079,-2.0444 3.3438,-3.8125 0.26479,-1.7681 -0.47664,-3.2806 -1.4375,-4.4375 -1.9167,-2.3078 -5.1248,-3.8118 -9.4062,-4.1562 h -0.0312 c -3.6334,-0.28685 -6.7129,1.1327 -9.1562,2.9062 -0.35247,-2.4659 -1.1248,-5.0463 -2.2188,-7.7812 -0.0211,-0.0527 -0.0406,-0.10415 -0.0625,-0.15625 l 4.875,-5.1875 a 3.0003,3.0003 0 0 0 0.21875,-0.28125 z m -13.906,4.5938 c 0.96658,0.59399 1.7468,1.1876 2.3125,1.7812 a 3.0003,3.0003 0 0 0 0.78125,1.0312 3.0003,3.0003 0 0 0 0.0312,0.0312 c 0.0774,0.13699 0.13453,0.27381 0.1875,0.40625 1.6357,4.0892 2.2317,7.341 1.9375,9.75 -0.29422,2.409 -1.2883,4.1385 -3.6562,5.875 -5.5936,4.102 -7.875,4.7812 -7.875,4.7812 h -0.0312 c 0,0 -2.6698,0.94304 -5.625,1.625 -1.4776,0.34098 -3.0288,0.61416 -4.1875,0.6875 -0.86906,0.055 -1.4871,-0.16732 -1.5312,-0.125 -0.49785,-0.48321 -1.5407,-1.9904 -1.9688,-3.4062 -0.23418,-0.77461 -0.30971,-1.4895 -0.28125,-1.875 0.007,-0.0979 0.0245,-0.0862 0.0312,-0.125 0.12592,-0.0736 0.72882,-0.44795 1.6562,-0.78125 1.0125,-0.36388 2.2728,-0.73227 3.4688,-1.0312 2.3919,-0.59796 4.5312,-0.96875 4.5312,-0.96875 a 3.0003,3.0003 0 0 0 1,-5.625 c 0.42797,-0.3104 0.82465,-0.74306 1.1562,-1.4062 0.24152,-0.48305 0.37742,-0.68269 0.4375,-0.78125 a 3.0092,3.0092 0 1 0 -4.4688,-4.0312 c 0,0 -0.40139,0.47347 -0.59375,0.78125 -0.005,0.009 -0.026,0.0225 -0.0312,0.0312 -0.0724,-0.0195 -0.0822,-0.005 -0.15625,-0.0312 -0.8258,-0.28903 -1.4536,-0.87979 -1.5625,-1.25 -0.17898,-0.60852 -0.11362,-0.61097 0.4375,-1.2812 0.55112,-0.67028 1.6044,-1.4481 2.6875,-2.5312 -0.17949,0.17949 -0.27119,0.29413 -0.3125,0.34375 0.10976,-0.0382 0.47112,-0.21011 0.9375,-0.28125 0.84796,-0.12935 2.0311,-0.19608 3.1875,-0.21875 2.3127,-0.0453 4.5,0.0625 4.5,0.0625 a 3.0003,3.0003 0 0 0 3,-1.4375 z" />
  </g>
  <metadata
     id="metadata4156">
    <rdf:RDF>
      <cc:Work>
        <dc:format>image/svg+xml</dc:format>
        <dc:type
           rdf:resource="http://purl.org/dc/dcmitype/StillImage" />
        <cc:license
           rdf:resource="http://creativecommons.org/licenses/publicdomain/" />
        <dc:publisher>
          <cc:Agent
             rdf:about="http://openclipart.org/">
            <dc:title>Openclipart</dc:title>
          </cc:Agent>
        </dc:publisher>
      </cc:Work>
      <cc:License
         rdf:about="http://creativecommons.org/licenses/publicdomain/">
        <cc:permits
           rdf:resource="http://creativecommons.org/ns#Reproduction" />
        <cc:permits
           rdf:resource="http://creativecommons.org/ns#Distribution" />
        <cc:permits
           rdf:resource="http://creativecommons.org/ns#DerivativeWorks" />
      </cc:License>
    </rdf:RDF>
  </metadata>
</svg>
