<?xml version="1.0" encoding="UTF-8" standalone="no"?>
<svg
   viewBox="0 0 601.73999 653.68866"
   version="1.1"
   id="svg281"
   sodipodi:docname="virus-papel.svg"
   inkscape:version="1.2.1 (2ed6d7ae0b, 2022-08-22, custom)"
   xmlns:inkscape="http://www.inkscape.org/namespaces/inkscape"
   xmlns:sodipodi="http://sodipodi.sourceforge.net/DTD/sodipodi-0.dtd"
   xmlns="http://www.w3.org/2000/svg"
   xmlns:svg="http://www.w3.org/2000/svg">
  <defs
     id="defs285" />
  <sodipodi:namedview
     id="namedview283"
     pagecolor="#ffffff"
     bordercolor="#666666"
     borderopacity="1.0"
     inkscape:showpageshadow="2"
     inkscape:pageopacity="0.0"
     inkscape:pagecheckerboard="0"
     inkscape:deskcolor="#d1d1d1"
     showgrid="false"
     inkscape:zoom="0.87943672"
     inkscape:cx="50.600571"
     inkscape:cy="325.20816"
     inkscape:window-width="1920"
     inkscape:window-height="1043"
     inkscape:window-x="0"
     inkscape:window-y="0"
     inkscape:window-maximized="1"
     inkscape:current-layer="svg281" />
  <path
     d="m 310.634,471.88 c 9.6451,-2.3388 131.46,-41.691 133.79,-35.805 l 84.612,207.9 c -0.68085,6.6314 -3.6307,10.749 -12.169,8.6736 l -79.6,-208.12 -130.23,37.798 c -11.596,-13.191 -4.5263,-14.814 3.5928,-10.447 z"
     fill="#55535a"
     stroke="#000000"
     stroke-linejoin="round"
     id="path143"
     style="fill:#ffffff;stroke-width:6;stroke-dasharray:none" />
  <path
     d="m 323.954,468.18 c 9.7429,-4.6475 130.33,-71.884 134.3,-67.393 l 142.78,158.01 c 0.93464,5.9555 -1.1916,10.338 -10.857,10.844 l -137.47,-159.56 -129.99,68.163 c -15.728,-8.339 -8.5646,-11.667 1.2267,-10.064 z"
     fill="#55535a"
     stroke="#000000"
     stroke-linejoin="round"
     id="path275"
     style="fill:#ffffff;stroke-width:6;stroke-dasharray:none" />
  <path
     d="m 298.964,465.59 c 4.2246,-8.1296 54.712,-118.78 57.618,-115.5 l 103.81,114.42 c 1.5913,5.832 1.2933,11.085 -3.6578,14.911 l -101.32,-117.84 -55.222,114.82 c -9.755,-3.2387 -6.6321,-9.1237 -1.2244,-10.815 z"
     fill="#55535a"
     stroke="#000000"
     stroke-linejoin="round"
     id="path75"
     style="fill:#ffffff;stroke-width:6;stroke-dasharray:none" />
  <path
     d="m 284.504,471.93 c -11.484,-4.6475 -157.26,-71.884 -159.55,-67.393 l -83.583,158.01 c 1.2965,5.9555 5.0645,10.338 14.919,10.844 l 77.689,-159.56 155.52,68.163 c 12.604,-8.339 4.1938,-11.667 -4.9973,-10.064 z"
     fill="#55535a"
     stroke="#000000"
     stroke-linejoin="round"
     id="path141"
     style="fill:#ffffff;stroke-width:6;stroke-dasharray:none" />
  <path
     d="m 280.444,474.9 c -7.8857,-7.3715 -102.55,-107.87 -107.7,-104.79 L 1.874,381.573 c -2.6887,5.3956 -1.9843,10.215 7.0771,13.615 l 166.27,-14.544 103.35,104.22 c 17.512,-3.2025 11.687,-8.5372 1.8684,-9.9653 z"
     fill="#55535a"
     stroke="#000000"
     stroke-linejoin="round"
     id="path145"
     style="fill:#ffffff;stroke-width:6;stroke-dasharray:none" />
  <path
     d="m 188.774,83.389 111.2,-82.805 119.78,81.274 0.12903,172.03 -125.21,104.39 -104.51,-113.35 -1.3797,-161.53 z"
     fill="#7e7e84"
     stroke="#000000"
     id="path147"
     style="fill:#ffffff;stroke-width:6;stroke-dasharray:none" />
  <path
     d="m 311.464,338.13 c 0,-1.0171 37.887,-44.916 39.934,-46.227 3.9179,-2.5094 61.822,-33.251 62.082,-32.99 0.33048,0.3315 -89.892,74.085 -93.306,76.317 -1.3987,0.91451 -8.7106,3.4456 -8.7106,2.9004 z"
     fill="#55535a"
     stroke="#514f58"
     stroke-linecap="round"
     stroke-linejoin="round"
     id="path149"
     style="fill:#ffffff;stroke-width:6;stroke-dasharray:none" />
  <path
     d="m 289.664,338.27 c -3.7793,-0.33069 -6.8222,-0.94522 -7.3575,-1.4859 -0.50201,-0.50708 -7.4437,-10.513 -15.426,-22.236 l -14.513,-21.314 24.156,-0.18074 c 13.286,-0.0994 34.806,-0.0994 47.824,0 l 24.662,-0.31633 -20.292,23.015 -19.298,22.517 -3.217,0.006 c -1.7694,0.003 -4.764,0.13047 -6.6548,0.28264 -1.8908,0.15217 -6.3379,0.0229 -9.8825,-0.28725 v -2e-5 z"
     fill="#61616d"
     stroke="#616168"
     stroke-linecap="round"
     stroke-linejoin="round"
     id="path151"
     style="fill:#ffffff;stroke-width:6;stroke-dasharray:none" />
  <path
     d="m 277.094,336.12 c -1.5662,-0.57376 -82.386,-86.037 -81.357,-86.037 0.19441,0 16.163,12.944 29.612,23.499 l 24.454,19.191 7.6928,11.233 c 19.571,28.578 22.453,32.888 21.956,32.837 -0.29192,-0.0298 -1.3531,-0.35555 -2.3583,-0.72376 z"
     fill="#73757e"
     stroke="#6f7176"
     stroke-linecap="round"
     stroke-linejoin="round"
     id="path153"
     style="fill:#ffffff;stroke-width:6;stroke-dasharray:none" />
  <path
     d="m 220.474,267.47 -28.867,-22.669 -0.42846,-7.4113 c -0.76301,-13.198 -1.4775,-151.63 -0.78123,-151.36 0.35668,0.13882 13.847,8.2833 29.978,18.099 l 29.33,17.846 v 84.084 c 0,46.246 -0.0819,84.084 -0.1819,84.084 -0.1,0 -13.172,-10.201 -29.049,-22.669 z"
     fill="#9c9ca4"
     stroke="#97979e"
     stroke-linecap="round"
     stroke-linejoin="round"
     id="path155"
     style="fill:#ffffff;stroke-width:6;stroke-dasharray:none" />
  <path
     d="m 220.004,101.88 c -16.521,-10.071 -29.98,-18.357 -29.909,-18.413 8.1829,-6.3681 106.7,-79.234 106.88,-79.052 0.3005,0.3005 -45.773,114.61 -46.481,115.33 -0.24673,0.24771 -13.966,-7.7896 -30.488,-17.861 z"
     fill="#9c9ca4"
     stroke="#97979e"
     stroke-linecap="round"
     stroke-linejoin="round"
     id="path157"
     style="fill:#ffffff;stroke-width:6;stroke-dasharray:none" />
  <path
     d="m 252.574,120.09 c 0.49598,-2.046 47.004,-116.63 47.344,-116.64 0.20205,-0.00805 0.86946,1.3003 1.4831,2.9075 0.61364,1.6072 11.781,28.061 24.815,58.786 l 23.699,55.864 h -48.782 c -40.312,0 -48.743,-0.15923 -48.56,-0.91702 z"
     fill="#8e9093"
     stroke="#8d9195"
     stroke-linecap="round"
     stroke-linejoin="round"
     id="path159"
     style="fill:#ffffff;stroke-width:6;stroke-dasharray:none" />
  <path
     d="m 251.074,206.95 v -84.569 h 98.321 v 169.14 h -98.321 v -84.569 z"
     fill="#8e9093"
     stroke="#8d9195"
     stroke-linecap="round"
     stroke-linejoin="round"
     id="path161"
     style="fill:#ffffff;stroke-width:6;stroke-dasharray:none" />
  <path
     d="m 188.814,83.91 1.3522,160.91 60.264,47.327 h 99.692 l 69.918,-37.862 V 82.555 l -68.962,39.214 h -100.06 l -62.201,-37.862 z"
     fill="none"
     stroke="#000000"
     id="path187"
     style="fill:#ffffff;stroke-width:6;stroke-dasharray:none" />
  <path
     d="m 188.584,83.402 111.36,-82.84 120.34,81.56"
     fill="none"
     stroke="#000000"
     id="path189"
     style="fill:#ffffff;stroke-width:6;stroke-dasharray:none" />
  <path
     d="M 351.154,121.67 299.821,0.49"
     fill="none"
     stroke="#000000"
     id="path191"
     style="fill:#ffffff;stroke-width:6;stroke-dasharray:none" />
  <path
     d="M 250.774,121.93 299.659,1.12"
     fill="none"
     stroke="#000000"
     id="path193"
     style="fill:#ffffff;stroke-width:6;stroke-dasharray:none" />
  <path
     d="m 190.074,244.75 104.53,112.89 125.64,-103.48"
     fill="none"
     stroke="#000000"
     id="path195"
     style="fill:#ffffff;stroke-width:6;stroke-dasharray:none" />
  <path
     d="m 350.274,292.05 -55.637,64.717 -44.109,-64.581"
     fill="none"
     stroke="#000000"
     id="path197"
     style="fill:#ffffff;stroke-width:6;stroke-dasharray:none" />
  <path
     d="M 250.464,121.13 V 291.92"
     fill="none"
     stroke="#000000"
     id="path199"
     style="fill:#ffffff;stroke-width:6;stroke-dasharray:none" />
  <path
     d="M 350.254,121.13 V 291.92"
     fill="none"
     stroke="#000000"
     id="path201"
     style="fill:#ffffff;stroke-width:6;stroke-dasharray:none" />
  <path
     d="m 288.644,476.16 c -7.7458,-4.6475 -99.44,-71.884 -105.34,-67.393 l -103.08,226.21 c -3.4939,5.9555 -3.2508,10.338 6.1966,10.844 l 102.98,-224.73 96.148,65.132 c 19.312,-8.339 13.578,-11.667 3.0983,-10.064 z"
     fill="#55535a"
     stroke="#000000"
     stroke-linejoin="round"
     id="path273"
     style="fill:#ffffff;stroke-width:6;stroke-dasharray:none" />
  <path
     d="m 304.804,478.03 c 8.611,5.4672 124.55,72.929 121.91,75.293 l 7.3725,92.398 c -5.3436,0.65982 -10.469,-0.46209 -15.056,-5.9724 l -3.6262,-89.396 -120.82,-72.811 c 1.3671,-9.1609 7.6123,-5.139 10.22,0.48791 z"
     fill="#55535a"
     stroke="#000000"
     stroke-linejoin="round"
     id="path277"
     style="fill:#ffffff;stroke-width:6;stroke-dasharray:none" />
  <path
     id="rect1952"
     style="fill:#ffffff;fill-opacity:1;stroke:#000000;stroke-width:5.95758;stroke-dasharray:none;stroke-opacity:1"
     d="m 266.41211,328.4668 v 136.40429 h 0.33398 a 31.290682,17.273378 0 0 0 -0.20703,1.75 31.290682,17.273378 0 0 0 31.29102,17.27344 31.290682,17.273378 0 0 0 31.29101,-17.27344 31.290682,17.273378 0 0 0 -0.16601,-1.75 H 329.25 V 328.4668 h -0.56641 a 31.290682,17.273378 0 0 1 -30.85351,14.82812 31.290682,17.273378 0 0 1 -30.85352,-14.82812 z" />
</svg>
